<svg width="100%" height="1024" viewBox="0 0 1440 1024" fill="none" xmlns="http://www.w3.org/2000/svg">
<g clip-path="url(#clip0)">
<rect width="100%" height="1024" fill="#0099FF" fill-opacity="0.9"/>
<path d="M1092 941.5C1092 962.211 1075.21 979 1054.5 979C1033.79 979 1017 962.211 1017 941.5C1017 920.789 1033.79 904 1054.5 904C1075.21 904 1092 920.789 1092 941.5Z" fill="#2D6281" fill-opacity="0.28"/>
<path d="M576 1016.5C576 1037.21 559.211 1054 538.5 1054C517.789 1054 501 1037.21 501 1016.5C501 995.789 517.789 979 538.5 979C559.211 979 576 995.789 576 1016.5Z" fill="#2D6281" fill-opacity="0.28"/>
<path d="M103 273.5C103 294.211 86.2107 311 65.5 311C44.7893 311 28 294.211 28 273.5C28 252.789 44.7893 236 65.5 236C86.2107 236 103 252.789 103 273.5Z" fill="#2D6281" fill-opacity="0.28"/>
<path d="M1365 274C1365 279.523 1360.52 284 1355 284C1349.48 284 1345 279.523 1345 274C1345 268.477 1349.48 264 1355 264C1360.52 264 1365 268.477 1365 274Z" fill="#2D6281" fill-opacity="0.67"/>
<path d="M288 942C288 947.523 283.523 952 278 952C272.477 952 268 947.523 268 942C268 936.477 272.477 932 278 932C283.523 932 288 936.477 288 942Z" fill="#2D6281" fill-opacity="0.67"/>
<path d="M1301 183C1301 188.523 1296.52 193 1291 193C1285.48 193 1281 188.523 1281 183C1281 177.477 1285.48 173 1291 173C1296.52 173 1301 177.477 1301 183Z" fill="#2D6281" fill-opacity="0.67"/>
<path d="M227 549.5C227 570.211 210.211 587 189.5 587C168.789 587 152 570.211 152 549.5C152 528.789 168.789 512 189.5 512C210.211 512 227 528.789 227 549.5Z" fill="#2D6281" fill-opacity="0.28"/>
<path d="M103 951.5C103 972.211 86.2107 989 65.5 989C44.7893 989 28 972.211 28 951.5C28 930.789 44.7893 914 65.5 914C86.2107 914 103 930.789 103 951.5Z" fill="#2D6281" fill-opacity="0.28"/>
<path fill-rule="evenodd" clip-rule="evenodd" d="M-18 937.566L42.75 942.368C103.5 947.17 225 956.774 346.5 951.972C468 947.17 589.5 927.962 711 932.764C832.5 937.566 954 966.377 1075.5 971.179C1197 975.981 1318.5 956.774 1379.25 947.17L1440 937.566V1024H1379.25C1318.5 1024 1197 1024 1075.5 1024C954 1024 832.5 1024 711 1024C589.5 1024 468 1024 346.5 1024C225 1024 103.5 1024 42.75 1024H-18V937.566Z" fill="white" fill-opacity="0.3"/>
</g>
<path fill-rule="evenodd" clip-rule="evenodd" d="M0 229.612L60 196.919C120 164.226 240 98.8397 360 109.484C480 120.128 600 208.324 720 235.695C840 263.066 960 229.612 1080 208.324C1200 186.275 1320 174.87 1380 169.548L1440 164.226V0H1380C1320 0 1200 0 1080 0C960 0 840 0 720 0C600 0 480 0 360 0C240 0 120 0 60 0H0V229.612Z" fill="#0099FF"/>
<defs>
<clipPath id="clip0">
<rect width="100%" height="1024" fill="white"/>
</clipPath>
</defs>
</svg>
