<svg xmlns="http://www.w3.org/2000/svg" enable-background="new 0 0 512 512" height="512" width="512" style="">
    <rect id="backgroundrect" width="100%" height="100%" x="0" y="0" fill="none" stroke="none" />
    <g class="currentLayer" style="">
        <title>Layer 1</title>
        <path
            d="m113.87878799438477,107.64030300140381 v123.586 c0,86.337 50.833,162.114 130,194.628 c79.167,-32.515 130,-108.292 130,-194.628 v-123.586 c-43.493,-13.016 -87.176,-19.61 -130,-19.61 s-86.507,6.594 -130,19.61 zm190,67.39 c0,15.743 -6.103,30.081 -16.057,40.795 c30.32,15.887 51.057,47.667 51.057,84.205 v10 c0,8.284 -6.716,15 -15,15 h-160 c-8.284,0 -15,-6.716 -15,-15 v-10 c0,-36.538 20.737000000000002,-68.318 51.057,-84.205 c-9.954,-10.714 -16.057,-25.052 -16.057,-40.795 c0,-33.084 26.916,-60 60,-60 s60,26.916 60,60 z"
            id="svg_2" stroke="#636569" stroke-opacity="1" fill="#636569" fill-opacity="1" class="selected" />
        <circle cx="243.87878799438477" cy="175.0303030014038" r="30" id="svg_3" stroke="#636569" stroke-opacity="1"
            fill="#636569" fill-opacity="1" class="selected" />
        <path
            d="m179.06878799438476,295.0303030014038 h129.62 c-2.5620000000000003,-33.514 -30.65,-60 -64.81,-60 c-34.159,0 -62.248,26.486 -64.81,60 z"
            id="svg_4" stroke="#636569" stroke-opacity="1" fill="#636569" fill-opacity="1" class="selected" />
        <path
            d="m449.4497879943848,44.10330300140381 c-68.134,-27.254 -137.299,-41.073 -205.571,-41.073 s-137.436,13.819 -205.571,41.073 c-5.695,2.278 -9.429,7.793 -9.429,13.927 v173.194 c0,64.059 20.212,125.084 58.451,176.478 c38.238,51.394 90.882,88.289 152.239,106.696 c2.8120000000000003,0.8440000000000001 5.808,0.8440000000000001 8.621,0 c61.357,-18.407 114,-55.302 152.239,-106.696 c38.238,-51.394 58.45,-112.419 58.45,-176.478 v-173.194 c0,-6.134 -3.734,-11.649000000000001 -9.429,-13.927 zm-45.571,187.123 c0,49.461 -14.656,96.834 -42.384,136.998 c-27.614,39.999 -66.441,70.353 -112.286,87.78 c-3.434,1.3050000000000002 -7.227,1.3050000000000002 -10.66,0 c-45.844,-17.428 -84.672,-47.782 -112.286,-87.78 c-27.728,-40.164 -42.384,-87.537 -42.384,-136.998 v-134.627 c0,-6.508 4.196,-12.273 10.389,-14.274000000000001 c49.903,-16.121 100.239,-24.295 149.611,-24.295 s99.708,8.174 149.611,24.295 c6.193,2.001 10.389,7.767 10.389,14.274000000000001 z"
            id="svg_5" stroke="#636569" stroke-opacity="1" fill="#636569" fill-opacity="1" class="selected" />
    </g>
</svg>